<?xml version="1.0" encoding="UTF-8" standalone="no"?>
<svg
   xmlns:dc="http://purl.org/dc/elements/1.1/"
   xmlns:cc="http://creativecommons.org/ns#"
   xmlns:rdf="http://www.w3.org/1999/02/22-rdf-syntax-ns#"
   xmlns:svg="http://www.w3.org/2000/svg"
   xmlns="http://www.w3.org/2000/svg"
   xmlns:sodipodi="http://sodipodi.sourceforge.net/DTD/sodipodi-0.dtd"
   xmlns:inkscape="http://www.inkscape.org/namespaces/inkscape"
   inkscape:version="1.0 (1.0+r73+1)"
   sodipodi:docname="luckafro_square.svg"
   viewBox="0 0 16 16"
   height="16"
   width="16"
   xml:space="preserve"
   id="svg1044"
   version="1.1"><metadata
     id="metadata1050"><rdf:RDF><cc:Work
         rdf:about=""><dc:format>image/svg+xml</dc:format><dc:type
           rdf:resource="http://purl.org/dc/dcmitype/StillImage" /><dc:title></dc:title></cc:Work></rdf:RDF></metadata><defs
     id="defs1048"><clipPath
       id="clipPath1064"
       clipPathUnits="userSpaceOnUse"><path
         id="path1062"
         d="M 0,500 H 500 V 0 H 0 Z" /></clipPath></defs><sodipodi:namedview
     inkscape:current-layer="g1052"
     inkscape:window-maximized="1"
     inkscape:window-y="0"
     inkscape:window-x="0"
     inkscape:cy="21.026258"
     inkscape:cx="23.94816"
     inkscape:zoom="18.548824"
     showgrid="false"
     id="namedview1046"
     inkscape:window-height="1375"
     inkscape:window-width="2560"
     inkscape:pageshadow="2"
     inkscape:pageopacity="0"
     guidetolerance="10"
     gridtolerance="10"
     objecttolerance="10"
     borderopacity="1"
     bordercolor="#666666"
     pagecolor="#ffffff" /><g
     transform="matrix(1.3333333,0,0,-1.3333333,0,666.66667)"
     inkscape:label="Final files"
     inkscape:groupmode="layer"
     id="g1052"><g
       transform="translate(-0.13142284,-0.49024713)"
       id="g1411"><g
         id="g1054"
         transform="matrix(0.56654381,0,0,0.56654381,60.437814,326.86995)" /><g
         id="g1086"
         transform="matrix(0.06374871,0,0,0.06374871,10.866757,490.53892)" /><g
         id="g1094"
         transform="matrix(0.06374871,0,0,0.06374871,2.5692629,496.30559)"><path
           d="m 0,0 -29.333,-69.399 h 61.297 l 5.793,14.48 H 0 Z"
           style="fill:#000000;fill-opacity:1;fill-rule:nonzero;stroke:none"
           id="path1096" /></g><g
         id="g1098"
         transform="matrix(0.06374871,0,0,0.06374871,6.2448858,497.08796)"><path
           d="m 0,0 h -35.183 v -47.499 h 22.756 l 8.279,20.853 8.174,-20.853 h 0.063 l 7.288,-19.693 5.909,-14.48 h 17.238 z"
           style="fill:#000000;fill-opacity:1;fill-rule:nonzero;stroke:none"
           id="path1100" /></g><g
         id="g1102"
         transform="matrix(0.06374871,0,0,0.06374871,6.2356551,491.88149)"><path
           d="M 0,0 H -29.716 V 14.48 H -4.061 Z"
           style="fill:#000000;fill-opacity:1;fill-rule:nonzero;stroke:none"
           id="path1104" /></g><path
         d="M 6.5819256,493.79977 H 4.0019513 v 0.54709 h 2.5799743 z"
         style="fill:#000000;fill-opacity:1;fill-rule:nonzero;stroke:none;stroke-width:0.0637486"
         id="path1106" /><g
         id="g1108"
         transform="matrix(0.06374871,0,0,0.06374871,9.8131753,496.96779)"><path
           d="m 0,0 h -63.694 l -0.708,2.059 h 63.693 z"
           style="fill:#000000;fill-opacity:1;fill-rule:nonzero;stroke:none"
           id="path1110" /></g><g
         id="g1112"
         transform="matrix(0.06374871,0,0,0.06374871,10.840799,493.98164)"><path
           d="m 0,0 h -63.694 l -0.708,2.059 h 63.693 z"
           style="fill:#000000;fill-opacity:1;fill-rule:nonzero;stroke:none"
           id="path1114" /></g><g
         id="g1116"
         transform="matrix(0.06374871,0,0,0.06374871,11.563524,491.88149)"><path
           d="m 0,0 h -63.694 l -0.708,2.059 h 63.693 z"
           style="fill:#000000;fill-opacity:1;fill-rule:nonzero;stroke:none"
           id="path1118" /></g><g
         id="g1120"
         transform="matrix(0.06374871,0,0,0.06374871,10.060202,496.24997)"><path
           d="m 0,0 h -63.694 l -0.708,2.059 h 63.693 z"
           style="fill:#000000;fill-opacity:1;fill-rule:nonzero;stroke:none"
           id="path1122" /></g><g
         id="g1124"
         transform="matrix(0.06374871,0,0,0.06374871,8.078127,496.57402)"><path
           d="m 0,0 h -34.351 l 2.79,-8.107 H 2.79 c 2.021,0 3.095,1.642 2.398,3.667 L 4.922,-3.668 C 4.225,-1.642 2.021,0 0,0"
           style="fill:#000000;fill-opacity:1;fill-rule:nonzero;stroke:none"
           id="path1126" /></g><g
         id="g1128"
         transform="matrix(0.06374871,0,0,0.06374871,10.332632,495.45831)"><path
           d="m 0,0 h -63.694 l -0.708,2.059 h 63.693 z"
           style="fill:#000000;fill-opacity:1;fill-rule:nonzero;stroke:none"
           id="path1130" /></g><g
         id="g1132"
         transform="matrix(0.06374871,0,0,0.06374871,8.3505569,495.78235)"><path
           d="m 0,0 h -34.351 l 2.79,-8.107 H 2.79 c 2.021,0 3.095,1.642 2.398,3.667 L 4.922,-3.668 C 4.225,-1.642 2.021,0 0,0"
           style="fill:#000000;fill-opacity:1;fill-rule:nonzero;stroke:none"
           id="path1134" /></g><g
         id="g1136"
         transform="matrix(0.06374871,0,0,0.06374871,10.605068,494.66665)"><path
           d="m 0,0 h -63.694 l -0.708,2.059 h 63.693 z"
           style="fill:#000000;fill-opacity:1;fill-rule:nonzero;stroke:none"
           id="path1138" /></g><g
         id="g1140"
         transform="matrix(0.06374871,0,0,0.06374871,8.6229869,494.9907)"><path
           d="m 0,0 h -34.351 l 2.79,-8.107 H 2.79 c 2.021,0 3.095,1.642 2.398,3.667 L 4.922,-3.668 C 4.225,-1.642 2.021,0 0,0"
           style="fill:#000000;fill-opacity:1;fill-rule:nonzero;stroke:none"
           id="path1142" /></g><g
         id="g1144"
         transform="matrix(0.06374871,0,0,0.06374871,11.042652,493.39508)"><path
           d="m 0,0 h -63.694 l -0.708,2.059 h 63.693 z"
           style="fill:#000000;fill-opacity:1;fill-rule:nonzero;stroke:none"
           id="path1146" /></g><g
         id="g1148"
         transform="matrix(0.06374871,0,0,0.06374871,9.0605774,493.71912)"><path
           d="m 0,0 h -34.351 l 2.79,-8.107 H 2.79 c 2.021,0 3.095,1.642 2.398,3.667 L 4.922,-3.668 C 4.225,-1.642 2.021,0 0,0"
           style="fill:#000000;fill-opacity:1;fill-rule:nonzero;stroke:none"
           id="path1150" /></g><g
         id="g1152"
         transform="matrix(0.06374871,0,0,0.06374871,11.315089,492.60342)"><path
           d="m 0,0 h -63.694 l -0.708,2.059 h 63.693 z"
           style="fill:#000000;fill-opacity:1;fill-rule:nonzero;stroke:none"
           id="path1154" /></g><g
         id="g1156"
         transform="matrix(0.06374871,0,0,0.06374871,9.3330136,492.92746)"><path
           d="m 0,0 h -34.351 l 2.79,-8.107 H 2.79 c 2.021,0 3.095,1.642 2.398,3.667 L 4.922,-3.668 C 4.225,-1.642 2.021,0 0,0"
           style="fill:#000000;fill-opacity:1;fill-rule:nonzero;stroke:none"
           id="path1158" /></g></g></g></svg>
