<?xml version="1.0" encoding="UTF-8" standalone="no"?>
<svg
   xmlns:dc="http://purl.org/dc/elements/1.1/"
   xmlns:cc="http://creativecommons.org/ns#"
   xmlns:rdf="http://www.w3.org/1999/02/22-rdf-syntax-ns#"
   xmlns:svg="http://www.w3.org/2000/svg"
   xmlns="http://www.w3.org/2000/svg"
   xmlns:sodipodi="http://sodipodi.sourceforge.net/DTD/sodipodi-0.dtd"
   xmlns:inkscape="http://www.inkscape.org/namespaces/inkscape"
   inkscape:version="1.0 (1.0+r73+1)"
   sodipodi:docname="luckafro_full_square.svg"
   viewBox="0 0 48 48"
   height="48"
   width="48"
   xml:space="preserve"
   id="svg1044"
   version="1.1"><metadata
     id="metadata1050"><rdf:RDF><cc:Work
         rdf:about=""><dc:format>image/svg+xml</dc:format><dc:type
           rdf:resource="http://purl.org/dc/dcmitype/StillImage" /><dc:title></dc:title></cc:Work></rdf:RDF></metadata><defs
     id="defs1048"><clipPath
       id="clipPath1064"
       clipPathUnits="userSpaceOnUse"><path
         id="path1062"
         d="M 0,500 H 500 V 0 H 0 Z" /></clipPath></defs><sodipodi:namedview
     inkscape:current-layer="g1052"
     inkscape:window-maximized="1"
     inkscape:window-y="0"
     inkscape:window-x="0"
     inkscape:cy="21.026258"
     inkscape:cx="23.94816"
     inkscape:zoom="18.548824"
     showgrid="false"
     id="namedview1046"
     inkscape:window-height="1375"
     inkscape:window-width="2560"
     inkscape:pageshadow="2"
     inkscape:pageopacity="0"
     guidetolerance="10"
     gridtolerance="10"
     objecttolerance="10"
     borderopacity="1"
     bordercolor="#666666"
     pagecolor="#ffffff" /><g
     transform="matrix(1.3333333,0,0,-1.3333333,0,666.66667)"
     inkscape:label="Final files"
     inkscape:groupmode="layer"
     id="g1052"><g
       transform="translate(113.0667,193.5988)"
       id="g1054" /><g
       transform="matrix(0.11252212,0,0,0.11252212,-10.112605,453.89108)"
       id="g1211"><path
         transform="translate(113.0667,193.5988)"
         d="M 0,0 H 8.384 V -3.144 H -3.385 V 27.247 H 0 Z"
         style="fill:#000000;fill-opacity:1;fill-rule:nonzero;stroke:none"
         id="path1056" /><g
         id="g1058"><g
           id="g1060"
           clip-path="url(#clipPath1064)"><g
             id="g1066"
             transform="translate(140.1957,202.7485)"><path
               d="M 0,0 V -1.734 C 0,-2.325 0.037,-2.915 0.12,-3.507 0.198,-4.098 0.333,-4.669 0.524,-5.22 0.711,-5.77 0.981,-6.287 1.329,-6.772 2,-7.712 2.906,-8.431 4.048,-8.927 c 1.142,-0.498 2.28,-0.747 3.407,-0.747 1.101,0 2.198,0.236 3.284,0.706 1.09,0.47 1.981,1.134 2.681,1.996 0.405,0.483 0.704,1.007 0.907,1.571 0.202,0.565 0.348,1.149 0.445,1.754 0.094,0.605 0.139,1.215 0.139,1.833 V 0 18.097 h 3.385 V -0.927 c 0,-0.833 -0.026,-1.619 -0.079,-2.359 -0.056,-0.737 -0.168,-1.456 -0.344,-2.155 -0.173,-0.7 -0.442,-1.37 -0.805,-2.016 -0.364,-0.644 -0.839,-1.277 -1.431,-1.893 -1.048,-1.129 -2.292,-1.99 -3.729,-2.58 -1.438,-0.592 -2.921,-0.887 -4.453,-0.887 -1.453,0 -2.868,0.262 -4.253,0.786 -1.382,0.524 -2.584,1.295 -3.606,2.318 -0.671,0.644 -1.202,1.295 -1.592,1.954 -0.389,0.658 -0.685,1.35 -0.887,2.077 -0.202,0.724 -0.337,1.483 -0.405,2.276 -0.067,0.792 -0.097,1.618 -0.097,2.479 V 18.097 H 0 Z"
               style="fill:#000000;fill-opacity:1;fill-rule:nonzero;stroke:none"
               id="path1068" /></g><g
             id="g1070"
             transform="translate(199.7635,214.1955)"><path
               d="m 0,0 c -1.209,1.262 -2.614,2.25 -4.213,2.962 -1.598,0.711 -3.284,1.067 -5.055,1.067 -1.696,0 -3.287,-0.343 -4.778,-1.026 -1.49,-0.685 -2.789,-1.606 -3.89,-2.761 -1.101,-1.156 -1.974,-2.492 -2.618,-4.011 -0.647,-1.518 -0.969,-3.11 -0.969,-4.776 0,-1.666 0.322,-3.258 0.969,-4.776 0.644,-1.519 1.524,-2.855 2.64,-4.01 1.112,-1.156 2.423,-2.077 3.928,-2.762 1.506,-0.685 3.104,-1.028 4.797,-1.028 1.719,0 3.378,0.369 4.976,1.108 1.599,0.74 3.004,1.714 4.213,2.923 v -4.192 c -1.314,-0.94 -2.752,-1.672 -4.314,-2.196 -1.557,-0.524 -3.141,-0.786 -4.755,-0.786 -2.15,0 -4.183,0.41 -6.104,1.23 -1.921,0.818 -3.602,1.934 -5.04,3.345 -1.438,1.41 -2.58,3.063 -3.426,4.956 -0.846,1.895 -1.27,3.917 -1.27,6.066 0,2.178 0.416,4.226 1.251,6.147 0.831,1.921 1.966,3.6 3.404,5.038 1.438,1.438 3.119,2.573 5.04,3.406 1.921,0.833 3.969,1.25 6.145,1.25 3.389,0 6.41,-0.996 9.069,-2.982 z"
               style="fill:#000000;fill-opacity:1;fill-rule:nonzero;stroke:none"
               id="path1072" /></g><g
             id="g1074"
             transform="translate(233.8985,220.8457)"><path
               d="M 0,0 H 4.557 L -9.713,-14.147 5.04,-30.391 H 0.363 l -12.454,13.947 -0.846,-0.848 v -13.099 h -3.385 V 0 h 3.385 v -13.02 z"
               style="fill:#000000;fill-opacity:1;fill-rule:nonzero;stroke:none"
               id="path1076" /></g><g
             id="g1078"
             transform="translate(265.4199,214.3958)"><path
               d="M 0,0 -5.201,-12.172 H 5.078 Z m -6.572,-15.315 -3.666,-8.626 h -3.707 L 0.079,7.901 13.742,-23.941 H 9.994 l -3.587,8.626 z"
               style="fill:#000000;fill-opacity:1;fill-rule:nonzero;stroke:none"
               id="path1080" /></g><g
             id="g1082"
             transform="translate(297.9448,217.7022)"><path
               d="m 0,0 v -9.03 h 10.118 v -3.143 H 0 V -27.247 H -3.385 V 3.144 H 10.44 V 0 Z"
               style="fill:#000000;fill-opacity:1;fill-rule:nonzero;stroke:none"
               id="path1084" /></g><g
             id="g1086"
             transform="translate(329.3014,206.7794)"><path
               d="m 0,0 h 1.048 c 0.967,0 1.906,0.06 2.824,0.182 0.91,0.119 1.73,0.374 2.456,0.765 0.727,0.388 1.311,0.94 1.753,1.652 C 8.526,3.31 8.747,4.258 8.747,5.441 8.747,6.676 8.53,7.663 8.103,8.403 7.673,9.142 7.1,9.693 6.388,10.056 5.677,10.419 4.857,10.653 3.932,10.762 3.003,10.868 2.03,10.923 1.007,10.923 H 0 Z m 0,-16.324 h -3.385 v 30.39 h 4.392 c 1.453,0 2.842,-0.114 4.172,-0.342 1.333,-0.229 2.512,-0.652 3.549,-1.27 1.034,-0.619 1.858,-1.471 2.479,-2.559 0.618,-1.09 0.925,-2.494 0.925,-4.213 0,-2.364 -0.678,-4.298 -2.033,-5.804 -1.359,-1.505 -3.22,-2.364 -5.583,-2.58 l 9.672,-13.622 H 10.035 L 0.846,-2.983 H 0 Z"
               style="fill:#000000;fill-opacity:1;fill-rule:nonzero;stroke:none"
               id="path1088" /></g><g
             id="g1090"
             transform="translate(374.1607,218.2246)"><path
               d="m 0,0 c -1.745,0 -3.378,-0.328 -4.898,-0.987 -1.516,-0.659 -2.834,-1.557 -3.947,-2.699 -1.115,-1.143 -1.995,-2.479 -2.639,-4.011 -0.648,-1.531 -0.97,-3.158 -0.97,-4.877 0,-1.721 0.322,-3.34 0.97,-4.857 0.644,-1.518 1.531,-2.849 2.658,-3.99 1.127,-1.143 2.453,-2.05 3.969,-2.722 1.517,-0.67 3.138,-1.007 4.857,-1.007 1.719,0 3.34,0.337 4.857,1.007 1.52,0.672 2.842,1.579 3.969,2.722 1.131,1.141 2.018,2.472 2.662,3.99 0.644,1.517 0.966,3.136 0.966,4.857 0,1.719 -0.322,3.346 -0.966,4.877 -0.644,1.532 -1.524,2.868 -2.64,4.011 -1.116,1.142 -2.434,2.04 -3.95,2.699 C 3.378,-0.328 1.749,0 0,0 m 0,3.145 c 2.176,0 4.228,-0.41 6.148,-1.23 1.921,-0.82 3.599,-1.949 5.037,-3.385 1.438,-1.438 2.572,-3.111 3.407,-5.017 0.832,-1.91 1.247,-3.951 1.247,-6.128 0,-2.176 -0.415,-4.218 -1.247,-6.126 -0.835,-1.908 -1.969,-3.567 -3.407,-4.977 -1.438,-1.411 -3.116,-2.527 -5.037,-3.345 -1.92,-0.821 -3.972,-1.231 -6.148,-1.231 -2.176,0 -4.224,0.41 -6.145,1.231 -1.921,0.818 -3.602,1.934 -5.04,3.345 -1.438,1.41 -2.572,3.069 -3.404,4.977 -0.835,1.908 -1.25,3.95 -1.25,6.126 0,2.177 0.415,4.218 1.25,6.128 0.832,1.906 1.966,3.579 3.404,5.017 1.438,1.436 3.119,2.565 5.04,3.385 1.921,0.82 3.969,1.23 6.145,1.23"
               style="fill:#000000;fill-opacity:1;fill-rule:nonzero;stroke:none"
               id="path1092" /></g><g
             id="g1094"
             transform="translate(199.142,297.2388)"><path
               d="m 0,0 -29.333,-69.399 h 61.297 l 5.793,14.48 H 0 Z"
               style="fill:#000000;fill-opacity:1;fill-rule:nonzero;stroke:none"
               id="path1096" /></g><g
             id="g1098"
             transform="translate(256.8,309.5115)"><path
               d="m 0,0 h -35.183 v -47.499 h 22.756 l 8.279,20.853 8.174,-20.853 h 0.063 l 7.288,-19.693 5.909,-14.48 h 17.238 z"
               style="fill:#000000;fill-opacity:1;fill-rule:nonzero;stroke:none"
               id="path1100" /></g><g
             id="g1102"
             transform="translate(256.6552,227.8398)"><path
               d="M 0,0 H -29.716 V 14.48 H -4.061 Z"
               style="fill:#000000;fill-opacity:1;fill-rule:nonzero;stroke:none"
               id="path1104" /></g><path
             d="m 262.087,257.931 h -40.471 v 8.582 h 40.471 z"
             style="fill:#000000;fill-opacity:1;fill-rule:nonzero;stroke:none"
             id="path1106" /><g
             id="g1108"
             transform="translate(312.7743,307.6265)"><path
               d="m 0,0 h -63.694 l -0.708,2.059 h 63.693 z"
               style="fill:#000000;fill-opacity:1;fill-rule:nonzero;stroke:none"
               id="path1110" /></g><g
             id="g1112"
             transform="translate(328.8942,260.784)"><path
               d="m 0,0 h -63.694 l -0.708,2.059 h 63.693 z"
               style="fill:#000000;fill-opacity:1;fill-rule:nonzero;stroke:none"
               id="path1114" /></g><g
             id="g1116"
             transform="translate(340.2313,227.8398)"><path
               d="m 0,0 h -63.694 l -0.708,2.059 h 63.693 z"
               style="fill:#000000;fill-opacity:1;fill-rule:nonzero;stroke:none"
               id="path1118" /></g><g
             id="g1120"
             transform="translate(316.6493,296.3663)"><path
               d="m 0,0 h -63.694 l -0.708,2.059 h 63.693 z"
               style="fill:#000000;fill-opacity:1;fill-rule:nonzero;stroke:none"
               id="path1122" /></g><g
             id="g1124"
             transform="translate(285.5573,301.4495)"><path
               d="m 0,0 h -34.351 l 2.79,-8.107 H 2.79 c 2.021,0 3.095,1.642 2.398,3.667 L 4.922,-3.668 C 4.225,-1.642 2.021,0 0,0"
               style="fill:#000000;fill-opacity:1;fill-rule:nonzero;stroke:none"
               id="path1126" /></g><g
             id="g1128"
             transform="translate(320.9228,283.9478)"><path
               d="m 0,0 h -63.694 l -0.708,2.059 h 63.693 z"
               style="fill:#000000;fill-opacity:1;fill-rule:nonzero;stroke:none"
               id="path1130" /></g><g
             id="g1132"
             transform="translate(289.8308,289.031)"><path
               d="m 0,0 h -34.351 l 2.79,-8.107 H 2.79 c 2.021,0 3.095,1.642 2.398,3.667 L 4.922,-3.668 C 4.225,-1.642 2.021,0 0,0"
               style="fill:#000000;fill-opacity:1;fill-rule:nonzero;stroke:none"
               id="path1134" /></g><g
             id="g1136"
             transform="translate(325.1964,271.5294)"><path
               d="m 0,0 h -63.694 l -0.708,2.059 h 63.693 z"
               style="fill:#000000;fill-opacity:1;fill-rule:nonzero;stroke:none"
               id="path1138" /></g><g
             id="g1140"
             transform="translate(294.1043,276.6126)"><path
               d="m 0,0 h -34.351 l 2.79,-8.107 H 2.79 c 2.021,0 3.095,1.642 2.398,3.667 L 4.922,-3.668 C 4.225,-1.642 2.021,0 0,0"
               style="fill:#000000;fill-opacity:1;fill-rule:nonzero;stroke:none"
               id="path1142" /></g><g
             id="g1144"
             transform="translate(332.0606,251.5828)"><path
               d="m 0,0 h -63.694 l -0.708,2.059 h 63.693 z"
               style="fill:#000000;fill-opacity:1;fill-rule:nonzero;stroke:none"
               id="path1146" /></g><g
             id="g1148"
             transform="translate(300.9686,256.666)"><path
               d="m 0,0 h -34.351 l 2.79,-8.107 H 2.79 c 2.021,0 3.095,1.642 2.398,3.667 L 4.922,-3.668 C 4.225,-1.642 2.021,0 0,0"
               style="fill:#000000;fill-opacity:1;fill-rule:nonzero;stroke:none"
               id="path1150" /></g><g
             id="g1152"
             transform="translate(336.3342,239.1644)"><path
               d="m 0,0 h -63.694 l -0.708,2.059 h 63.693 z"
               style="fill:#000000;fill-opacity:1;fill-rule:nonzero;stroke:none"
               id="path1154" /></g><g
             id="g1156"
             transform="translate(305.2422,244.2475)"><path
               d="m 0,0 h -34.351 l 2.79,-8.107 H 2.79 c 2.021,0 3.095,1.642 2.398,3.667 L 4.922,-3.668 C 4.225,-1.642 2.021,0 0,0"
               style="fill:#000000;fill-opacity:1;fill-rule:nonzero;stroke:none"
               id="path1158" /></g></g></g></g></g></svg>
